<svg width="24" height="24" viewBox="0 0 24 24" fill="none" xmlns="http://www.w3.org/2000/svg">
<g clip-path="url(#clip0_1151_6213)">
<path d="M1.82812 13.4531H10.5469V22.1719C10.5469 22.9733 11.1986 23.625 12 23.625C12.8014 23.625 13.4531 22.9733 13.4531 22.1719V13.4531H22.1719C22.9733 13.4531 23.625 12.8014 23.625 12C23.625 11.1986 22.9733 10.5469 22.1719 10.5469H13.4531V1.82812C13.4531 1.02672 12.8014 0.375 12 0.375C11.1986 0.375 10.5469 1.02672 10.5469 1.82812V10.5469H1.82812C1.02672 10.5469 0.375 11.1986 0.375 12C0.375 12.8014 1.02672 13.4531 1.82812 13.4531Z" fill="#FF9D23"/>
</g>
<defs>
<clipPath id="clip0_1151_6213">
<rect width="24" height="24" fill="white"/>
</clipPath>
</defs>
</svg>
