<svg width="40" height="40" viewBox="0 0 40 40" fill="none" xmlns="http://www.w3.org/2000/svg">
<path d="M23.6952 20.7096C24.6756 19.9383 25.3912 18.8806 25.7424 17.6836C26.0937 16.4866 26.0631 15.2099 25.655 14.0311C25.2468 12.8523 24.4814 11.83 23.4652 11.1065C22.4491 10.383 21.2326 9.99414 19.9852 9.99414C18.7377 9.99414 17.5213 10.383 16.5051 11.1065C15.4889 11.83 14.7235 12.8523 14.3154 14.0311C13.9072 15.2099 13.8767 16.4866 14.2279 17.6836C14.5792 18.8806 15.2948 19.9383 16.2752 20.7096C14.5952 21.3827 13.1295 22.499 12.0341 23.9396C10.9387 25.3801 10.2547 27.0909 10.0552 28.8896C10.0407 29.021 10.0523 29.1538 10.0892 29.2807C10.1261 29.4075 10.1876 29.5259 10.2703 29.629C10.4372 29.8371 10.6799 29.9705 10.9452 29.9996C11.2104 30.0288 11.4763 29.9514 11.6845 29.7845C11.8927 29.6176 12.026 29.3749 12.0552 29.1096C12.2747 27.1548 13.2069 25.3494 14.6734 24.0384C16.1399 22.7274 18.0381 22.0027 20.0052 22.0027C21.9723 22.0027 23.8704 22.7274 25.3369 24.0384C26.8035 25.3494 27.7356 27.1548 27.9552 29.1096C27.9824 29.3554 28.0996 29.5823 28.2843 29.7467C28.4689 29.911 28.7079 30.0011 28.9552 29.9996H29.0652C29.3273 29.9695 29.5669 29.8369 29.7317 29.6309C29.8966 29.4248 29.9733 29.162 29.9452 28.8996C29.7447 27.0958 29.057 25.3806 27.956 23.9378C26.855 22.4951 25.3821 21.3791 23.6952 20.7096ZM19.9852 19.9996C19.194 19.9996 18.4207 19.765 17.7629 19.3255C17.1051 18.886 16.5924 18.2613 16.2896 17.5304C15.9869 16.7995 15.9077 15.9952 16.062 15.2193C16.2164 14.4434 16.5973 13.7306 17.1567 13.1712C17.7161 12.6118 18.4289 12.2308 19.2048 12.0765C19.9807 11.9222 20.785 12.0014 21.5159 12.3041C22.2468 12.6069 22.8715 13.1196 23.311 13.7774C23.7506 14.4352 23.9852 15.2085 23.9852 15.9996C23.9852 17.0605 23.5637 18.0779 22.8136 18.8281C22.0634 19.5782 21.046 19.9996 19.9852 19.9996Z" fill="white"/>
</svg>
