<svg width="40" height="40" viewBox="0 0 40 40" fill="none" xmlns="http://www.w3.org/2000/svg">
<path d="M20 17.9001C21.6974 17.9001 23.3253 17.2258 24.5255 16.0256C25.7257 14.8253 26.4 13.1975 26.4 11.5001V6.8801C26.3947 5.61053 25.8867 4.39476 24.9871 3.49891C24.0875 2.60305 22.8696 2.10009 21.6 2.1001H18.4C17.127 2.1001 15.9061 2.60581 15.0059 3.50599C14.1057 4.40616 13.6 5.62706 13.6 6.9001V11.5001C13.6 13.1975 14.2743 14.8253 15.4745 16.0256C16.6748 17.2258 18.3026 17.9001 20 17.9001ZM14.4 6.8801C14.4053 5.8227 14.8291 4.81042 15.5786 4.06459C16.3282 3.31877 17.3426 2.90008 18.4 2.9001H21.64C22.7009 2.9001 23.7183 3.32153 24.4684 4.07167C25.2186 4.82182 25.64 5.83923 25.64 6.9001V8.4401C25.24 8.4401 24.312 7.6401 23.64 6.8401C23.5882 6.77923 23.5194 6.73527 23.4424 6.71388C23.3654 6.69249 23.2838 6.69466 23.208 6.7201C21.32 7.3281 16.308 8.7521 14.4 8.2881V6.8801ZM14.4 9.1081C16.8 9.5281 21.852 7.9801 23.172 7.5521C23.684 8.1241 24.772 9.2201 25.6 9.2201V11.5001C25.6 12.9853 25.01 14.4097 23.9598 15.4599C22.9096 16.5101 21.4852 17.1001 20 17.1001C18.5148 17.1001 17.0904 16.5101 16.0402 15.4599C14.99 14.4097 14.4 12.9853 14.4 11.5001V9.1081ZM7.50001 37.9001H32.5C32.6061 37.9001 32.7078 37.858 32.7828 37.7829C32.8579 37.7079 32.9 37.6062 32.9 37.5001V31.6921C32.8968 28.4847 31.6207 25.4097 29.352 23.1424C27.0833 20.8752 24.0074 19.6012 20.8 19.6001H19.2C15.9926 19.6012 12.9167 20.8752 10.648 23.1424C8.37928 25.4097 7.10319 28.4847 7.10001 31.6921V37.5001C7.10001 37.6062 7.14215 37.7079 7.21716 37.7829C7.29218 37.858 7.39392 37.9001 7.50001 37.9001ZM25.684 21.5001L23.804 24.6281L21.936 20.4561C23.2373 20.5846 24.5059 20.9407 25.684 21.5081V21.5001ZM20.8 20.4001H21.028L21.952 22.4681L21.076 23.3481H18.916L18.04 22.4681L18.964 20.4001H20.8ZM19.108 24.1521H20.876L21.676 33.4281L20 35.6001L18.312 33.4281L19.108 24.1521ZM18.056 20.4561L16.196 24.6361L14.316 21.5081C15.4941 20.9407 16.7627 20.5846 18.064 20.4561H18.056ZM7.90001 31.6921C7.90079 29.6998 8.42847 27.7432 9.42953 26.0207C10.4306 24.2982 11.8694 22.8711 13.6 21.8841L15.9 25.7081C15.9359 25.7671 15.9864 25.8157 16.0467 25.8494C16.107 25.883 16.175 25.9005 16.244 25.9001H16.268C16.3408 25.8955 16.411 25.8711 16.4709 25.8295C16.5308 25.7879 16.5782 25.7307 16.608 25.6641L17.68 23.2641L18.328 23.9081L17.492 33.5081C17.4837 33.6087 17.5137 33.7087 17.576 33.7881L19.676 36.4881C19.7134 36.5363 19.7613 36.5753 19.8161 36.6021C19.8708 36.6289 19.931 36.6429 19.992 36.6429C20.053 36.6429 20.1132 36.6289 20.1679 36.6021C20.2227 36.5753 20.2706 36.5363 20.308 36.4881L22.4 33.7961C22.4623 33.7167 22.4923 33.6167 22.484 33.5161L21.648 23.9161L22.296 23.2721L23.368 25.6721C23.3978 25.7387 23.4452 25.7959 23.5051 25.8375C23.565 25.8791 23.6352 25.9035 23.708 25.9081H23.736C23.8044 25.9078 23.8715 25.89 23.931 25.8564C23.9905 25.8228 24.0405 25.7745 24.076 25.7161L26.4 21.8841C28.1306 22.8711 29.5694 24.2982 30.5705 26.0207C31.5715 27.7432 32.0992 29.6998 32.1 31.6921V37.1001H29.152V32.5001H28.352V37.1001H11.652V32.5001H10.852V37.1001H7.90001V31.6921Z" fill="white"/>
<path d="M25.292 34.1521H25.96C26.4749 34.151 26.9683 33.9458 27.332 33.5813C27.6957 33.2168 27.9 32.723 27.9 32.2081V30.0001C27.9 29.894 27.8578 29.7923 27.7828 29.7173C27.7078 29.6422 27.6061 29.6001 27.5 29.6001H23.752C23.6459 29.6001 23.5442 29.6422 23.4691 29.7173C23.3941 29.7923 23.352 29.894 23.352 30.0001V32.2081C23.352 32.723 23.5563 33.2168 23.92 33.5813C24.2837 33.9458 24.7771 34.151 25.292 34.1521ZM24.152 30.4001H27.1V32.2081C27.1 32.5108 26.98 32.8012 26.7663 33.0156C26.5527 33.23 26.2627 33.351 25.96 33.3521H25.292C24.9893 33.351 24.6993 33.23 24.4856 33.0156C24.272 32.8012 24.152 32.5108 24.152 32.2081V30.4001Z" fill="white"/>
</svg>
