<svg width="32" height="32" viewBox="0 0 32 32" fill="none" xmlns="http://www.w3.org/2000/svg">
<g clip-path="url(#clip0_1492_325)">
<path d="M13.3336 32C13.067 32 12.8003 31.8667 12.667 31.8667C12.267 31.6 12.0003 31.0667 12.0003 30.6667V19.0667L0.266971 2.13333C0.000303904 1.73333 -0.133029 1.2 0.133637 0.666667C0.400304 0.266667 0.800304 0 1.33364 0H30.667C31.2003 0 31.6003 0.266667 31.867 0.666667C32.1336 1.06667 32.0003 1.6 31.7336 2L20.0003 19.0667V28C20.0003 28.5333 19.7336 28.9333 19.2003 29.2L13.867 31.8667C13.7336 32 13.6003 32 13.3336 32ZM3.86697 2.66667L14.4003 17.8667C14.5336 18.1333 14.667 18.4 14.667 18.6667V28.5333L17.3336 27.2V18.6667C17.3336 18.4 17.467 18.1333 17.6003 17.8667L28.1336 2.66667H3.86697Z" fill="#1E8A71"/>
</g>
<defs>
<clipPath id="clip0_1492_325">
<rect width="32" height="32" fill="white"/>
</clipPath>
</defs>
</svg>
