<svg width="53" height="56" viewBox="0 0 53 56" fill="none" xmlns="http://www.w3.org/2000/svg">
<path fill-rule="evenodd" clip-rule="evenodd" d="M46.4074 26.8725H20.037V29.1274H46.4074V26.8725Z" fill="#111111"/>
<path fill-rule="evenodd" clip-rule="evenodd" d="M39.494 36.6905L47.1853 28.7983C47.2877 28.6936 47.3688 28.5692 47.4242 28.4322C47.4796 28.2952 47.5081 28.1484 47.5081 28.0001C47.5081 27.8518 47.4796 27.7049 47.4242 27.568C47.3688 27.431 47.2877 27.3066 47.1853 27.2018L39.494 19.3097L37.9381 20.9039L44.8537 28.0001L37.9381 35.094L39.494 36.6905ZM34.321 46.0393C34.321 46.3383 34.2052 46.6251 33.9992 46.8365C33.7931 47.048 33.5136 47.1667 33.2222 47.1667H6.85184C6.56043 47.1667 6.28096 47.048 6.0749 46.8365C5.86884 46.6251 5.75308 46.3383 5.75308 46.0393V9.96087C5.75308 9.66185 5.86884 9.37508 6.0749 9.16364C6.28096 8.9522 6.56043 8.83342 6.85184 8.83342H33.2222C33.5136 8.83342 33.7931 8.9522 33.9992 9.16364C34.2052 9.37508 34.321 9.66185 34.321 9.96087V16.7256H32.1235V11.0883H7.95061V44.9118H32.1235V39.2746H34.321V46.0393Z" fill="#111111"/>
</svg>
