<svg width="32" height="32" viewBox="0 0 32 32" fill="none" xmlns="http://www.w3.org/2000/svg">
<path d="M16.0002 30.6667C16.7074 30.6667 17.3857 30.3857 17.8858 29.8856C18.3859 29.3855 18.6669 28.7072 18.6669 28H13.3335C13.3335 28.7072 13.6145 29.3855 14.1146 29.8856C14.6147 30.3857 15.293 30.6667 16.0002 30.6667ZM5.33354 25.3333H26.6669C26.9305 25.3333 27.1883 25.255 27.4075 25.1085C27.6267 24.962 27.7975 24.7538 27.8984 24.5102C27.9993 24.2666 28.0257 23.9985 27.9743 23.7399C27.9229 23.4813 27.7959 23.2438 27.6095 23.0573L25.3335 20.7813V13.3333C25.3292 11.0913 24.5187 8.92564 23.05 7.2317C21.5813 5.53777 19.5523 4.42857 17.3335 4.10665V2.66665C17.3335 2.31302 17.1931 1.97389 16.943 1.72384C16.693 1.47379 16.3538 1.33331 16.0002 1.33331C15.6466 1.33331 15.3074 1.47379 15.0574 1.72384C14.8073 1.97389 14.6669 2.31302 14.6669 2.66665V4.10665C12.4481 4.42857 10.4191 5.53777 8.95039 7.2317C7.48166 8.92564 6.67116 11.0913 6.66687 13.3333V20.7813L4.39087 23.0573C4.20446 23.2438 4.07752 23.4813 4.02609 23.7399C3.97467 23.9985 4.00107 24.2666 4.10197 24.5102C4.20286 24.7538 4.37371 24.962 4.59293 25.1085C4.81214 25.255 5.06987 25.3333 5.33354 25.3333ZM8.94287 22.276C9.19294 22.026 9.33346 21.6869 9.33354 21.3333V13.3333C9.33354 11.5652 10.0359 9.86951 11.2862 8.61927C12.5364 7.36903 14.2321 6.66665 16.0002 6.66665C17.7683 6.66665 19.464 7.36903 20.7142 8.61927C21.9645 9.86951 22.6669 11.5652 22.6669 13.3333V21.3333C22.6669 21.6869 22.8075 22.026 23.0575 22.276L23.4482 22.6666H8.5522L8.94287 22.276Z" fill="#7D7E7C"/>
<circle cx="22" cy="9" r="4" fill="#FF9D23"/>
</svg>
