<svg xmlns="http://www.w3.org/2000/svg" viewBox="0 0 96 96" id="soap">
  <path fill="#0a0a0a" d="M90.47,36.38l-3.87-4.7a6.47,6.47,0,0,0-4-2.25V22.94a5.6,5.6,0,0,0-5.58-5.59H74.76V7.07h5.55a3.57,3.57,0,0,0,0-7.14c-21.78,0-20.41,0-20.6,0l-5.36,1.4A3,3,0,0,0,52.2,5.15l.08.28A3,3,0,0,0,55.6,7.6c5.28-.7,2.19-.53,12.49-.53V17.35H65.8a5.59,5.59,0,0,0-5.58,5.59V29.5a6.51,6.51,0,0,0-3.54,2.18l-3.87,4.7a24.2,24.2,0,0,0-5.53,15.39V61.7a8.87,8.87,0,0,0-12.11,5.84,5.63,5.63,0,0,0-5.38,4.07c-1-.14-2.06-.3-3.09-.49-5.38-1-9.27,2.09-9.27,7.09a12.16,12.16,0,0,0,6.48,10.4H19A3.71,3.71,0,0,0,19,96H85.5A10.51,10.51,0,0,0,96,85.52V51.77A24.2,24.2,0,0,0,90.47,36.38Zm-9.84-7H62.22V27.13H80.63ZM55.34,5.62a1.06,1.06,0,0,1-1.14-.75,1.3,1.3,0,0,1,0-1.08,1,1,0,0,1,.65-.49l5.23-1.37H80.31a1.57,1.57,0,0,1,0,3.14h-20C60,5,60.17,5,55.34,5.62ZM70.09,7.07h2.67V17.35H70.09ZM62.22,22.94a3.58,3.58,0,0,1,3.58-3.59H77.05a3.59,3.59,0,0,1,3.58,3.59v2.19H62.22ZM35.69,69.58A1,1,0,0,0,37,68.77c1.34-8.29,14.57-7.84,13.53,2.39a64.19,64.19,0,0,1-18.68.69A3.65,3.65,0,0,1,35.69,69.58ZM19.43,78.21c0-3.63,2.71-5.9,6.91-5.13a68.18,68.18,0,0,0,15.31,1.1A75.08,75.08,0,0,0,51.52,73c3.67-.53,6.51,1.39,6.51,5.19,0,4-3.18,8.5-7.26,9.28a64.72,64.72,0,0,1-24.07,0C22.83,86.76,19.43,82.42,19.43,78.21ZM17.25,92.32A1.7,1.7,0,0,1,19,90.61H58.51a1.71,1.71,0,1,1,0,3.41H19A1.7,1.7,0,0,1,17.25,92.32ZM85.5,94H78.26a10.62,10.62,0,0,0,3-3.27,1,1,0,0,0-1.74-1A8.53,8.53,0,0,1,72.12,94c-11.39,0-10.35,0-10.26-.12a3.7,3.7,0,0,0-3.35-5.29c-5.47,0-5,0-4.85,0,6.64-3.42,9.17-14.06,2.26-17a8.39,8.39,0,0,0-3.41-.63,9.09,9.09,0,0,0-3.17-8.06c-.1-.08-.06.75-.06-11.11a22.19,22.19,0,0,1,5.07-14.11L58.22,33a4.48,4.48,0,0,1,3.39-1.62h6.65A4.4,4.4,0,0,1,71.68,33c3.78,4.58,5.64,6.47,7.21,10.2a1,1,0,0,0,.92.62,1,1,0,0,0,.93-1.39c-1.71-4.07-3.68-6-7.51-10.7-.1-.12-.21-.23-.32-.35h8.72A4.44,4.44,0,0,1,85.06,33l3.87,4.7A22.19,22.19,0,0,1,94,51.77c0,.26,2.21.17-28.92.17a4.32,4.32,0,0,0-4.32,4.31V76.31a4.33,4.33,0,0,0,4.32,4.32H94v4.89A8.51,8.51,0,0,1,85.5,94ZM94,78.63H65.08a2.32,2.32,0,0,1-2.32-2.32V56.25a2.32,2.32,0,0,1,2.32-2.31H94Z" class="color302d3d svgShape"></path>
  <path fill="#0a0a0a" d="M30 79a66.57 66.57 0 0016.33 0 1 1 0 10-.24-2 64.66 64.66 0 01-15.85 0A1 1 0 1030 79zM6.39 88.61A6.4 6.4 0 000 95a1 1 0 001 1.06H11.78a1 1 0 001-1.06A6.41 6.41 0 006.39 88.61zM2.1 94.07a4.4 4.4 0 018.59 0z" class="color302d3d svgShape"></path>
</svg>
