<svg width="40" height="40" viewBox="0 0 40 40" fill="none" xmlns="http://www.w3.org/2000/svg">
<path d="M19.3118 34.5163C18.1941 34.3651 17.1177 34.0529 16.0412 33.7299L11.6306 32.2162L9.23144 31.2091C6.35694 29.8635 5.52002 28.5129 5.31273 25.2129L5.29511 24.3652C5.24547 22.7202 5.23433 18.8041 6.17289 17.4195C6.51163 16.9198 7.22482 16.772 7.76919 16.6137L9.70776 16.1024C10.2798 15.9498 10.8539 15.747 11.4338 15.6339L11.2996 14.7723C11.2606 14.3269 11.2699 13.8703 11.2691 13.4233L11.2864 11.7977C11.2948 11.6472 11.3245 11.5048 11.3397 11.3569C11.4499 10.2816 11.5641 8.62423 12.6798 8.12067C13.1658 7.90129 13.6841 7.72911 14.1867 7.55179L19.4324 5.52886C19.8519 5.37145 20.2495 5.23692 20.7001 5.20367C22.2093 5.10805 24.8323 6.76586 26.1546 7.47423L27.4194 8.13054C27.7155 8.27673 28.0361 8.41073 28.3169 8.58461C29.0768 9.05517 29.103 11.4327 29.1358 12.2327L29.1841 14.0419C29.1851 14.5553 29.226 15.0857 29.1018 15.5865C29.1782 15.6396 29.293 15.6659 29.3813 15.6934L31.9922 16.4816C32.4468 16.6244 32.9508 16.7684 33.3691 16.996C34.3276 17.5175 34.4836 19.54 34.5841 20.4857L34.6943 21.7192L34.6933 24.6576L34.5141 26.4941C34.2724 28.256 33.6464 28.9157 32.1204 29.8504L30.1864 30.9325C28.4359 31.8379 26.6478 32.6516 24.8069 33.3567C23.0344 34.0357 21.2376 34.6717 19.3118 34.5163ZM20.7336 6.19731C20.3277 6.25392 19.9393 6.41273 19.5615 6.56573L13.3027 8.98323L16.0536 10.5851L16.331 10.4125C16.9639 10.0635 17.6825 9.82023 18.3513 9.54554L23.3743 7.55054C23.5499 7.48292 23.7384 7.42498 23.9076 7.34348C23.2299 6.98917 21.5232 6.14388 20.7336 6.19731ZM24.9953 8.01754L17.1111 11.1995C17.9321 11.5419 18.7309 12.0351 19.6018 12.2374C20.6029 12.4759 21.7449 11.9759 22.6583 11.6237C24.2065 11.0267 25.6991 10.3361 27.1147 9.46673L27.4283 9.25804L26.16 8.60417C25.9428 8.48773 25.2029 7.97242 24.9953 8.01754ZM12.5948 9.70329C12.3418 11.0071 11.9311 14.858 12.6733 15.9542C13.5763 17.2882 16.6716 19.3072 18.0388 20.095L19.0223 20.6238C19.1526 20.689 19.3811 20.7433 19.4836 20.8333L19.4851 18.7744L19.5089 13.24C18.901 13.0982 18.3646 12.8543 17.7858 12.6358C17.6171 13.1278 17.8074 13.6551 17.7014 14.1307C17.6261 14.4685 17.2371 14.7525 16.8944 14.6137C16.5511 14.4747 16.4286 14.095 16.0244 14.0798C14.7182 14.0306 14.9288 12.5058 15.2563 11.6212C15.3178 11.4548 15.4433 11.3932 15.2874 11.321L14.8401 11.0996C14.0645 10.6899 13.3212 10.194 12.5948 9.70329ZM27.9001 10.1465L27.0676 10.6735C26.1161 11.2245 25.1264 11.6845 24.1156 12.1135L22.4758 12.7786C22.0578 12.9309 21.6295 13.076 21.1949 13.1721L20.6964 13.2619C20.6318 13.271 20.5307 13.2699 20.4771 13.3042L20.4939 20.9334C20.5713 20.913 20.6461 20.8934 20.7258 20.884C21.5009 20.6187 22.2388 20.2044 22.933 19.7862L24.2083 18.9899L25.7733 17.8289C26.5205 17.2503 27.6904 16.3427 28.1058 15.4772C28.247 15.1829 28.1906 14.9162 28.1899 14.598L28.182 12.9785C28.1773 12.818 28.1404 12.6595 28.1357 12.4972L28.0619 10.9538C28.0411 10.7137 28.0263 10.4154 27.9409 10.1894L27.9001 10.1465ZM16.2406 11.8325C16.1299 12.1422 16.0284 12.5099 16.0082 12.839C16.2712 12.9162 16.5133 12.992 16.7104 13.1938C16.7528 12.7452 16.8324 12.6155 16.9429 12.2314L16.2406 11.8325ZM28.6791 16.5334C27.9533 17.3555 27.1091 18.0662 26.2516 18.7465L25.6048 19.2261L26.0664 19.3986C26.2164 19.4594 27.4788 20.007 27.5377 19.9966C27.6268 19.9807 27.7741 19.884 27.8613 19.8443L28.8202 19.417L32.4103 17.6991L28.6791 16.5334ZM11.7891 16.6046L7.93888 17.5991C7.87626 17.615 7.76744 17.6325 7.71757 17.673L9.43451 18.5952L16.0147 21.6714L17.9853 22.3795C19.6146 22.9122 20.1834 22.9885 21.8859 22.4919L24.6094 21.593C24.9261 21.4845 25.36 21.2846 25.6831 21.4616C26.1501 21.7175 26.4023 22.3905 26.5302 22.874L26.5458 22.9344C26.6616 23.3971 26.6735 23.8123 26.6784 24.2887L26.6914 24.2661C26.7699 24.1348 27.0013 23.9908 27.1305 23.9147C27.6317 23.6192 28.0923 23.6345 28.6541 23.6427C28.6489 22.9252 28.4821 21.61 27.7517 21.228C27.4224 21.0558 27.0474 20.9284 26.7049 20.7788L24.6879 19.9065C23.9234 20.3685 23.1746 20.8574 22.3779 21.2638C20.3995 22.2728 19.7113 22.1637 17.8873 21.1495C16.2438 20.2358 14.0345 18.7789 12.6581 17.4553L12.1815 16.9552C12.0834 16.8428 11.9513 16.5862 11.7891 16.6046ZM6.82707 18.2498C6.50701 19.2407 6.41851 20.3024 6.34701 21.3365L6.28801 21.9027L6.28826 24.7276L6.34819 25.3558C6.57619 28.1635 7.08219 29.1087 9.77207 30.3395C11.4911 31.126 13.2888 31.7865 15.0879 32.3647L18.2199 33.2792L19.3524 33.5046C19.4175 33.5139 19.4936 33.5139 19.554 33.5389L19.5622 29.7368L19.5623 23.8108C18.8304 23.727 18.1463 23.5152 17.4513 23.2817L16.1155 22.8187C15.7233 22.6749 15.3297 22.503 14.9257 22.3965C14.0013 23.4364 14.9381 25.6463 13.6501 25.7188C12.919 25.76 12.7775 24.6489 12.0317 24.6685C11.5776 24.6804 11.0994 24.9525 10.7027 24.5937C10.4203 24.3385 10.3396 23.9145 10.3307 23.552C10.305 22.5044 10.5783 21.4166 11.2597 20.6035C9.76301 19.882 8.19532 19.2019 6.82707 18.2498ZM33.1966 18.3316C32.1306 19.0962 29.9354 20.0946 28.6336 20.5674L28.657 20.592C29.4011 21.379 29.6842 22.6112 29.6501 23.6582C29.6337 24.1627 29.3575 24.642 28.8281 24.71L28.7922 24.7149C28.1948 24.7849 27.8523 24.4955 27.3534 25.0276C27.1071 25.2902 26.8708 25.5852 26.4841 25.6154C25.7486 25.6729 25.6856 24.8381 25.6779 24.3294C25.6689 23.7353 25.6408 22.9479 25.2875 22.4476C24.3765 22.7467 23.4859 23.0855 22.5573 23.3318L21.2159 23.6649C21.0049 23.7097 20.7729 23.7206 20.5681 23.778L20.5687 29.8535L20.5678 33.5181C23.2502 33.2337 27.6418 31.1297 29.9712 29.9082C30.6188 29.5686 31.2683 29.2179 31.8814 28.8189C33.6208 27.687 33.5703 26.6672 33.6661 24.7168L33.6669 21.8071C33.62 20.8166 33.5276 19.2813 33.1966 18.3316ZM12.1266 21.123C11.5496 21.6959 11.3298 22.657 11.3278 23.4487L11.329 23.7177C12.0157 23.6732 12.5984 23.5854 13.1626 24.075L13.3317 24.2389L13.406 24.3184C13.4557 24.1868 13.4206 23.9395 13.4305 23.792C13.4737 23.1482 13.6735 22.4435 14.0663 21.9239L12.5076 21.2225C12.3977 21.1755 12.2493 21.0822 12.1266 21.123Z" fill="white"/>
</svg>
