<svg width="40" height="40" viewBox="0 0 40 40" fill="none" xmlns="http://www.w3.org/2000/svg">
<path d="M6.6415 38.1131H28.9056C29.1058 38.1131 29.2978 38.0336 29.4393 37.8921C29.5808 37.7505 29.6604 37.5586 29.6604 37.3584V32.9056H33.3585C33.5586 32.9056 33.7506 32.8261 33.8921 32.6845C34.0337 32.543 34.1132 32.351 34.1132 32.1509V7.9471C34.1136 7.83435 34.0887 7.72294 34.0404 7.62107C33.992 7.5192 33.9215 7.42945 33.8339 7.35842L27.283 2.0754L27.1698 1.99238L27.0792 1.93955C26.9923 1.90686 26.9004 1.889 26.8075 1.88672H11.0943C10.8942 1.88672 10.7022 1.96623 10.5607 2.10777C10.4191 2.24931 10.3396 2.44127 10.3396 2.64144V7.09427H6.6415C6.44133 7.09427 6.24937 7.17378 6.10783 7.31532C5.96629 7.45685 5.88678 7.64882 5.88678 7.84898V37.3584C5.88678 37.5586 5.96629 37.7505 6.10783 37.8921C6.24937 38.0336 6.44133 38.1131 6.6415 38.1131ZM23.1094 9.43389L27.2226 12.7622H23.1094V9.43389ZM27.5622 4.22634L31.3358 7.24521H27.5622V4.22634ZM11.849 3.39615H26.0528V8.03012C26.0528 8.23028 26.1323 8.42224 26.2739 8.56378C26.4154 8.70532 26.6074 8.78483 26.8075 8.78483H32.6038V31.4263H29.6604V13.1546C29.6607 13.0419 29.6359 12.9305 29.5875 12.8286C29.5392 12.7267 29.4687 12.637 29.3811 12.566L22.8302 7.28295C22.7967 7.25565 22.7583 7.23514 22.717 7.22257L22.6415 7.1471C22.5519 7.1144 22.4576 7.09655 22.3622 7.09427H11.849V3.39615ZM7.39621 8.6037H21.6V13.5169C21.6 13.7171 21.6795 13.909 21.821 14.0506C21.9626 14.1921 22.1545 14.2716 22.3547 14.2716H28.1509V36.6037H7.39621V8.6037Z" fill="white"/>
<path d="M24.4528 16.7773H11.0943C10.8942 16.7773 10.7022 16.8569 10.5607 16.9984C10.4191 17.1399 10.3396 17.3319 10.3396 17.5321C10.3396 17.7322 10.4191 17.9242 10.5607 18.0657C10.7022 18.2073 10.8942 18.2868 11.0943 18.2868H24.4528C24.653 18.2868 24.845 18.2073 24.9865 18.0657C25.128 17.9242 25.2076 17.7322 25.2076 17.5321C25.2076 17.3319 25.128 17.1399 24.9865 16.9984C24.845 16.8569 24.653 16.7773 24.4528 16.7773ZM24.4528 20.4302H11.0943C10.8942 20.4302 10.7022 20.5097 10.5607 20.6512C10.4191 20.7928 10.3396 20.9847 10.3396 21.1849C10.3396 21.3851 10.4191 21.577 10.5607 21.7186C10.7022 21.8601 10.8942 21.9396 11.0943 21.9396H24.4528C24.653 21.9396 24.845 21.8601 24.9865 21.7186C25.128 21.577 25.2076 21.3851 25.2076 21.1849C25.2076 20.9847 25.128 20.7928 24.9865 20.6512C24.845 20.5097 24.653 20.4302 24.4528 20.4302ZM24.4528 24.083H11.0943C10.8942 24.083 10.7022 24.1625 10.5607 24.3041C10.4191 24.4456 10.3396 24.6376 10.3396 24.8377C10.3396 25.0379 10.4191 25.2298 10.5607 25.3714C10.7022 25.5129 10.8942 25.5924 11.0943 25.5924H24.4528C24.653 25.5924 24.845 25.5129 24.9865 25.3714C25.128 25.2298 25.2076 25.0379 25.2076 24.8377C25.2076 24.6376 25.128 24.4456 24.9865 24.3041C24.845 24.1625 24.653 24.083 24.4528 24.083ZM24.4528 27.7434H11.0943C10.8942 27.7434 10.7022 27.8229 10.5607 27.9644C10.4191 28.106 10.3396 28.2979 10.3396 28.4981C10.3396 28.6983 10.4191 28.8902 10.5607 29.0318C10.7022 29.1733 10.8942 29.2528 11.0943 29.2528H24.4528C24.653 29.2528 24.845 29.1733 24.9865 29.0318C25.128 28.8902 25.2076 28.6983 25.2076 28.4981C25.2076 28.2979 25.128 28.106 24.9865 27.9644C24.845 27.8229 24.653 27.7434 24.4528 27.7434ZM24.4528 31.3962H11.0943C10.8942 31.3962 10.7022 31.4757 10.5607 31.6173C10.4191 31.7588 10.3396 31.9508 10.3396 32.1509C10.3396 32.3511 10.4191 32.5431 10.5607 32.6846C10.7022 32.8261 10.8942 32.9056 11.0943 32.9056H24.4528C24.653 32.9056 24.845 32.8261 24.9865 32.6846C25.128 32.5431 25.2076 32.3511 25.2076 32.1509C25.2076 31.9508 25.128 31.7588 24.9865 31.6173C24.845 31.4757 24.653 31.3962 24.4528 31.3962Z" fill="white"/>
</svg>
